{
  "accessors": [
    {
      "bufferView": 2,
      "componentType": 5126,
      "count": 65532,
      "max": [
        0.33290499448776245,
        0.13253499567508698,
        1.9553990364074707
      ],
      "min": [
        -0.2987560033798218,
        -0.16880899667739868,
        -0.0038479999639093876
      ],
      "type": "VEC3"
    },
    {
      "bufferView": 2,
      "byteOffset": 786384,
      "componentType": 5126,
      "count": 65532,
      "max": [
        0.9999983310699463,
        0.9999907612800598,
        0.9998743534088135
      ],
      "min": [
        -0.9999983310699463,
        -0.9999942779541016,
        -0.999890148639679
      ],
      "type": "VEC3"
    },
    {
      "bufferView": 1,
      "componentType": 5126,
      "count": 65532,
      "max": [
        0.9304699897766113,
        0.9919999837875366
      ],
      "min": [
        0.03999999910593033,
        0.005799999926239252
      ],
      "type": "VEC2"
    },
    {
      "bufferView": 0,
      "componentType": 5125,
      "count": 334566,
      "type": "SCALAR"
    },
    {
      "bufferView": 2,
      "byteOffset": 1572768,
      "componentType": 5126,
      "count": 65532,
      "max": [
        0.5579119920730591,
        0.14012600481510162,
        1.9476749897003174
      ],
      "min": [
        -0.5579119920730591,
        -0.17648200690746307,
        -0.0038479999639093876
      ],
      "type": "VEC3"
    },
    {
      "bufferView": 2,
      "byteOffset": 2359152,
      "componentType": 5126,
      "count": 65532,
      "max": [
        0.9999895095825195,
        0.9999944567680359,
        0.9993463158607483
      ],
      "min": [
        -0.9999895691871643,
        -0.9999993443489075,
        -0.9999760985374451
      ],
      "type": "VEC3"
    },
    {
      "bufferView": 1,
      "byteOffset": 524256,
      "componentType": 5126,
      "count": 65532,
      "max": [
        0.9848399758338928,
        0.9938200116157532
      ],
      "min": [
        0.00570000009611249,
        0.00570000009611249
      ],
      "type": "VEC2"
    },
    {
      "bufferView": 0,
      "byteOffset": 1338264,
      "componentType": 5125,
      "count": 322275,
      "type": "SCALAR"
    },
    {
      "bufferView": 2,
      "byteOffset": 3145536,
      "componentType": 5126,
      "count": 65532,
      "max": [
        0.5557680130004883,
        0.1407259851694107,
        1.9565680027008057
      ],
      "min": [
        -0.5557680130004883,
        -0.1780720055103302,
        -0.004073979798704386
      ],
      "type": "VEC3"
    },
    {
      "bufferView": 2,
      "byteOffset": 3931920,
      "componentType": 5126,
      "count": 65532,
      "max": [
        0.9999209642410278,
        0.9999944567680359,
        0.9998743534088135
      ],
      "min": [
        -0.9999983310699463,
        -0.9999991655349731,
        -0.9999842643737793
      ],
      "type": "VEC3"
    },
    {
      "bufferView": 1,
      "byteOffset": 1048512,
      "componentType": 5126,
      "count": 65532,
      "max": [
        0.9867799878120422,
        0.9864100217819214
      ],
      "min": [
        0.005499999970197678,
        0.03530000150203705
      ],
      "type": "VEC2"
    },
    {
      "bufferView": 0,
      "byteOffset": 2627364,
      "componentType": 5125,
      "count": 329079,
      "type": "SCALAR"
    },
    {
      "bufferView": 2,
      "byteOffset": 4718304,
      "componentType": 5126,
      "count": 65532,
      "max": [
        0.5552150011062622,
        0.13916899263858795,
        1.94159996509552
      ],
      "min": [
        -0.5552150011062622,
        -0.1657869964838028,
        -0.004366970155388117
      ],
      "type": "VEC3"
    },
    {
      "bufferView": 2,
      "byteOffset": 5504688,
      "componentType": 5126,
      "count": 65532,
      "max": [
        0.9999303817749023,
        0.9999997615814209,
        0.9999713897705078
      ],
      "min": [
        -0.9999303221702576,
        -0.9999993443489075,
        -0.9999525547027588
      ],
      "type": "VEC3"
    },
    {
      "bufferView": 1,
      "byteOffset": 1572768,
      "componentType": 5126,
      "count": 65532,
      "max": [
        0.9922999739646912,
        0.984250009059906
      ],
      "min": [
        0.01489999983459711,
        0.006200000178068876
      ],
      "type": "VEC2"
    },
    {
      "bufferView": 0,
      "byteOffset": 3943680,
      "componentType": 5125,
      "count": 324918,
      "type": "SCALAR"
    },
    {
      "bufferView": 2,
      "byteOffset": 6291072,
      "componentType": 5126,
      "count": 65532,
      "max": [
        0.5579119920730591,
        0.13253499567508698,
        1.956719994544983
      ],
      "min": [
        -0.5579119920730591,
        -0.1689790040254593,
        -0.003911970183253288
      ],
      "type": "VEC3"
    },
    {
      "bufferView": 2,
      "byteOffset": 7077456,
      "componentType": 5126,
      "count": 65532,
      "max": [
        0.9999874830245972,
        0.9999944567680359,
        0.9946743845939636
      ],
      "min": [
        -0.9999507069587708,
        -0.9999276995658875,
        -0.9999420046806335
      ],
      "type": "VEC3"
    },
    {
      "bufferView": 1,
      "byteOffset": 2097024,
      "componentType": 5126,
      "count": 65532,
      "max": [
        0.988610029220581,
        0.9931899905204773
      ],
      "min": [
        0.00887999963015318,
        0.010739999823272228
      ],
      "type": "VEC2"
    },
    {
      "bufferView": 0,
      "byteOffset": 5243352,
      "componentType": 5125,
      "count": 318147,
      "type": "SCALAR"
    },
    {
      "bufferView": 2,
      "byteOffset": 7863840,
      "componentType": 5126,
      "count": 65532,
      "max": [
        0.5548980236053467,
        0.14038899540901184,
        1.9575200080871582
      ],
      "min": [
        -0.5548980236053467,
        -0.17740699648857117,
        -0.004073979798704386
      ],
      "type": "VEC3"
    },
    {
      "bufferView": 2,
      "byteOffset": 8650224,
      "componentType": 5126,
      "count": 65532,
      "max": [
        0.9999816417694092,
        0.9999562501907349,
        0.9998704195022583
      ],
      "min": [
        -0.9999816417694092,
        -0.9999939799308777,
        -0.9999842643737793
      ],
      "type": "VEC3"
    },
    {
      "bufferView": 1,
      "byteOffset": 2621280,
      "componentType": 5126,
      "count": 65532,
      "max": [
        0.9883999824523926,
        0.9944999814033508
      ],
      "min": [
        0.009999999776482582,
        0.005760000087320805
      ],
      "type": "VEC2"
    },
    {
      "bufferView": 0,
      "byteOffset": 6515940,
      "componentType": 5125,
      "count": 268311,
      "type": "SCALAR"
    },
    {
      "bufferView": 2,
      "byteOffset": 9436608,
      "componentType": 5126,
      "count": 37185,
      "max": [
        0.5570160150527954,
        0.1402360051870346,
        1.9572370052337646
      ],
      "min": [
        -0.5570160150527954,
        -0.17688299715518951,
        -0.004059019964188337
      ],
      "type": "VEC3"
    },
    {
      "bufferView": 2,
      "byteOffset": 9882828,
      "componentType": 5126,
      "count": 37185,
      "max": [
        0.999972939491272,
        0.9999997615814209,
        0.9998743534088135
      ],
      "min": [
        -0.9999983310699463,
        -0.9999952912330627,
        -0.9998894929885864
      ],
      "type": "VEC3"
    },
    {
      "bufferView": 1,
      "byteOffset": 3145536,
      "componentType": 5126,
      "count": 37185,
      "max": [
        0.9892100095748901,
        0.9909300208091736
      ],
      "min": [
        0.0,
        0.0
      ],
      "type": "VEC2"
    },
    {
      "bufferView": 0,
      "byteOffset": 7589184,
      "componentType": 5125,
      "count": 95556,
      "type": "SCALAR"
    }
  ],
  "asset": {
    "extras": {
      "author": "chrisfischerart (https://sketchfab.com/chrisfischerart)",
      "license": "SKETCHFAB Editorial (https://sketchfab.com/licenses)",
      "source": "https://sketchfab.com/3d-models/ecorche-male-musclenames-anatomy-33162ec759e04d2985dbbdf4ec908d66",
      "title": "Écorché Male Musclenames Anatomy"
    },
    "generator": "Sketchfab-12.66.0",
    "version": "2.0"
  },
  "bufferViews": [
    {
      "buffer": 0,
      "byteLength": 7971408,
      "name": "floatBufferViews",
      "target": 34963
    },
    {
      "buffer": 0,
      "byteLength": 3443016,
      "byteOffset": 7971408,
      "byteStride": 8,
      "name": "floatBufferViews",
      "target": 34962
    },
    {
      "buffer": 0,
      "byteLength": 10329048,
      "byteOffset": 11414424,
      "byteStride": 12,
      "name": "floatBufferViews",
      "target": 34962
    }
  ],
  "buffers": [
    {
      "byteLength": 21743472,
      "uri": "scene.bin"
    }
  ],
  "extensionsRequired": [
    "KHR_materials_pbrSpecularGlossiness"
  ],
  "extensionsUsed": [
    "KHR_materials_pbrSpecularGlossiness"
  ],
  "images": [
    {
      "uri": "textures/defaultMat_diffuse.jpeg"
    }
  ],
  "materials": [
    {
      "doubleSided": true,
      "extensions": {
        "KHR_materials_pbrSpecularGlossiness": {
          "diffuseFactor": [
            1.0,
            1.0,
            1.0,
            1.0
          ],
          "diffuseTexture": {
            "index": 0
          },
          "glossinessFactor": 0.4,
          "specularFactor": [
            0.2,
            0.2,
            0.2
          ]
        }
      },
      "name": "defaultMat"
    }
  ],
  "meshes": [
    {
      "name": "Object_0",
      "primitives": [
        {
          "attributes": {
            "NORMAL": 1,
            "POSITION": 0,
            "TEXCOORD_0": 2
          },
          "indices": 3,
          "material": 0,
          "mode": 4
        }
      ]
    },
    {
      "name": "Object_1",
      "primitives": [
        {
          "attributes": {
            "NORMAL": 5,
            "POSITION": 4,
            "TEXCOORD_0": 6
          },
          "indices": 7,
          "material": 0,
          "mode": 4
        }
      ]
    },
    {
      "name": "Object_2",
      "primitives": [
        {
          "attributes": {
            "NORMAL": 9,
            "POSITION": 8,
            "TEXCOORD_0": 10
          },
          "indices": 11,
          "material": 0,
          "mode": 4
        }
      ]
    },
    {
      "name": "Object_3",
      "primitives": [
        {
          "attributes": {
            "NORMAL": 13,
            "POSITION": 12,
            "TEXCOORD_0": 14
          },
          "indices": 15,
          "material": 0,
          "mode": 4
        }
      ]
    },
    {
      "name": "Object_4",
      "primitives": [
        {
          "attributes": {
            "NORMAL": 17,
            "POSITION": 16,
            "TEXCOORD_0": 18
          },
          "indices": 19,
          "material": 0,
          "mode": 4
        }
      ]
    },
    {
      "name": "Object_5",
      "primitives": [
        {
          "attributes": {
            "NORMAL": 21,
            "POSITION": 20,
            "TEXCOORD_0": 22
          },
          "indices": 23,
          "material": 0,
          "mode": 4
        }
      ]
    },
    {
      "name": "Object_6",
      "primitives": [
        {
          "attributes": {
            "NORMAL": 25,
            "POSITION": 24,
            "TEXCOORD_0": 26
          },
          "indices": 27,
          "material": 0,
          "mode": 4
        }
      ]
    }
  ],
  "nodes": [
    {
      "children": [
        1
      ],
      "matrix": [
        1.0,
        0.0,
        0.0,
        0.0,
        0.0,
        2.220446049250313e-16,
        -1.0,
        0.0,
        0.0,
        1.0,
        2.220446049250313e-16,
        0.0,
        0.0,
        0.0,
        0.0,
        1.0
      ],
      "name": "Sketchfab_model"
    },
    {
      "children": [
        2,
        3,
        4,
        5,
        6,
        7,
        8
      ],
      "name": "objEXCHANGE.OBJ.cleaner.materialmerger.gles"
    },
    {
      "mesh": 0,
      "name": "Object_2"
    },
    {
      "mesh": 1,
      "name": "Object_3"
    },
    {
      "mesh": 2,
      "name": "Object_4"
    },
    {
      "mesh": 3,
      "name": "Object_5"
    },
    {
      "mesh": 4,
      "name": "Object_6"
    },
    {
      "mesh": 5,
      "name": "Object_7"
    },
    {
      "mesh": 6,
      "name": "Object_8"
    }
  ],
  "samplers": [
    {
      "magFilter": 9729,
      "minFilter": 9987,
      "wrapS": 10497,
      "wrapT": 10497
    }
  ],
  "scene": 0,
  "scenes": [
    {
      "name": "Sketchfab_Scene",
      "nodes": [
        0
      ]
    }
  ],
  "textures": [
    {
      "sampler": 0,
      "source": 0
    }
  ]
}
